<?xml version="1.0" encoding="utf-8"?>
<svg xmlns="http://www.w3.org/2000/svg" style="margin: auto; background: rgb(241, 242, 243); display: block; shape-rendering: auto;" width="280" height="133" preserveAspectRatio="xMidYMid">
<style type="text/css">
  text {
    text-anchor: middle; font-size: 54px; opacity: 0;
  }
</style>
<g style="transform-origin:140px 66.5px;transform:scale(1)">
<g transform="translate(140,66.5)">
  <g transform="translate(0,0)"><g class="path" style="transform: matrix(1, 0, 0, 1, 0, 35.82); opacity: 0.05; transform-origin: -108px -12.7864px; animation: 1.08696s linear 0s 1 normal forwards running float-btt-in-66d149f8-84df-414e-af67-9cd06dc6c296;"><path d="M13.50-6.75L0-6.75L0-54L47.25-54L47.25-47.25L13.50-47.25L13.50-33.75L40.50-33.75L40.50-27L13.50-27L13.50-6.75" fill="#000000" stroke="none" stroke-width="none" transform="translate(-131.625,17.588571428571427)" style="fill: rgb(0, 0, 0);"></path></g><g class="path" style="transform: matrix(1, 0, 0, 1, 0, 35.82); opacity: 0.05; transform-origin: -54px -6.03643px; animation: 1.08696s linear 0.102484s 1 normal forwards running float-btt-in-66d149f8-84df-414e-af67-9cd06dc6c296;"><path d="M94.50-6.75L60.75-6.75L60.75-13.50L54-13.50L54-33.75L60.75-33.75L60.75-40.50L94.50-40.50L94.50-33.75L101.25-33.75L101.25-20.25L67.50-20.25L67.50-13.50L94.50-13.50L94.50-6.75zM67.50-33.75L67.50-27L87.75-27L87.75-33.75L67.50-33.75" fill="#000000" stroke="none" stroke-width="none" transform="translate(-131.625,17.588571428571427)" style="fill: rgb(0, 0, 0);"></path></g><g class="path" style="transform: matrix(1, 0, 0, 1, 0, 35.82); opacity: 0.05; transform-origin: -13.5px -6.03643px; animation: 1.08696s linear 0.204969s 1 normal forwards running float-btt-in-66d149f8-84df-414e-af67-9cd06dc6c296;"><path d="M121.50-40.50L121.50-13.50L128.25-13.50L128.25-6.75L114.75-6.75L114.75-13.50L108-13.50L108-40.50L121.50-40.50" fill="#000000" stroke="none" stroke-width="none" transform="translate(-131.625,17.588571428571427)" style="fill: rgb(0, 0, 0);"></path></g><g class="path" style="transform: matrix(1, 0, 0, 1, 0, 35.82); opacity: 0.05; transform-origin: 0px -9.41143px; animation: 1.08696s linear 0.307453s 1 normal forwards running float-btt-in-66d149f8-84df-414e-af67-9cd06dc6c296;"><path d="M128.25-40.50L135-40.50L135-13.50L128.25-13.50L128.25-40.50" fill="#000000" stroke="none" stroke-width="none" transform="translate(-131.625,17.588571428571427)" style="fill: rgb(0, 0, 0);"></path></g><g class="path" style="transform: matrix(1, 0, 0, 1, 0, 35.82); opacity: 0.05; transform-origin: 13.5px -6.03643px; animation: 1.08696s linear 0.409938s 1 normal forwards running float-btt-in-66d149f8-84df-414e-af67-9cd06dc6c296;"><path d="M141.75-40.50L155.25-40.50L155.25-13.50L148.50-13.50L148.50-6.75L135-6.75L135-13.50L141.75-13.50L141.75-40.50" fill="#000000" stroke="none" stroke-width="none" transform="translate(-131.625,17.588571428571427)" style="fill: rgb(0, 0, 0);"></path></g><g class="path" style="transform: matrix(1, 0, 0, 1, 0, 35.82); opacity: 0.05; transform-origin: 54px -6.03643px; animation: 1.08696s linear 0.512422s 1 normal forwards running float-btt-in-66d149f8-84df-414e-af67-9cd06dc6c296;"><path d="M209.25-6.75L168.75-6.75L168.75-13.50L162-13.50L162-40.50L175.50-40.50L175.50-13.50L195.75-13.50L195.75-40.50L209.25-40.50L209.25-6.75" fill="#000000" stroke="none" stroke-width="none" transform="translate(-131.625,17.588571428571427)" style="fill: rgb(0, 0, 0);"></path></g><g class="path" style="transform: matrix(1, 0, 0, 1, 0, 35.82); opacity: 0.05; transform-origin: 108px -12.7864px; animation: 1.08696s linear 0.614907s 1 normal forwards running float-btt-in-66d149f8-84df-414e-af67-9cd06dc6c296;"><path d="M229.50-6.75L216-6.75L216-54L229.50-54L229.50-27L243-27L243-33.75L249.75-33.75L249.75-40.50L263.25-40.50L263.25-33.75L256.50-33.75L256.50-27L249.75-27L249.75-20.25L256.50-20.25L256.50-13.50L263.25-13.50L263.25-6.75L249.75-6.75L249.75-13.50L243-13.50L243-20.25L229.50-20.25L229.50-6.75" fill="#000000" stroke="none" stroke-width="none" transform="translate(-131.625,17.588571428571427)" style="fill: rgb(0, 0, 0);"></path></g></g>
</g>
</g>
<style id="float-btt-in-66d149f8-84df-414e-af67-9cd06dc6c296" data-anikit="">@keyframes float-btt-in-66d149f8-84df-414e-af67-9cd06dc6c296
{
  0% {
    animation-timing-function: cubic-bezier(0.2242,0.7499,0.3142,0.8148);
    transform: translate(0px,35.82px) rotate(0deg) scale(1,1) skewX(0deg) skewY(0deg);
    opacity: 0.05;
  }
  100% {
    transform: translate(0px,0px) rotate(0deg) scale(1,1) skewX(0deg) skewY(0deg);
    opacity: 1;
  }
}</style></svg>